#!OML:ASF E:\emotionWalksFemale\Project 1\Capture day 1\Session 1\Female1.ASF
:FULLY-SPECIFIED
:DEGREES
1908
root 9.21261 15.281 -36.9334 359.95 -1.63356 -359.252
lowerback 5.363 -0.168886 2.89479
upperback -5.48125 0.150446 1.31438
thorax -8.79672 -0.0622545 -0.252433
lowerneck -4.16581 9.86087 6.18777
upperneck 13.7861 13.5126 -4.5848
head 5.57981 6.66071 -1.52216
rclavicle -3.47873e-015 -7.95139e-015
rhumerus -37.3048 5.3321 -87.4396
rradius 31.8382
rwrist 21.0705
rhand -4.11984 -53.3818
rfingers 7.12502
rthumb 21.6389 277.807
lclavicle -3.47873e-015 -7.95139e-015
lhumerus -42.3769 1.80189 85.8383
lradius 45.466
lwrist -2.691
lhand -11.9496 -39.4005
lfingers 7.12502
lthumb 14.1056 -9.89923
rfemur -2.07896 21.4229 31.1659
rtibia 24.7176
rfoot -24.1527 -29.4341
rtoes 13.8245
lfemur -11.7253 -11.4232 -19.1657
ltibia 31.9445
lfoot -22.5978 16.4664
ltoes -43.9217
1909
root 9.21143 15.2788 -36.9326 359.901 -1.57166 -359.206
lowerback 5.40091 -0.170895 2.93339
upperback -5.48566 0.151328 1.2907
thorax -8.824 -0.0654603 -0.299049
lowerneck -4.33829 9.87575 6.14947
upperneck 13.9783 13.5148 -4.4303
head 5.65586 6.66449 -1.4556
rclavicle 4.57205e-015 -2.38542e-015
rhumerus -37.1425 5.13709 -87.3705
rradius 31.744
rwrist 21.1998
rhand -3.89921 -53.1416
rfingers 7.12502
rthumb 21.8507 278.072
lclavicle 4.57205e-015 -2.38542e-015
lhumerus -42.2229 1.78212 85.7776
lradius 45.2273
lwrist -2.89633
lhand -11.9594 -39.4197
lfingers 7.12502
lthumb 14.0962 -9.91785
rfemur -2.03511 21.4129 31.1554
rtibia 24.7629
rfoot -24.3535 -29.5266
rtoes 13.8852
lfemur -11.682 -11.3541 -19.2193
ltibia 31.8915
lfoot -22.5786 16.466
ltoes -43.8994
1910
root 9.20932 15.2788 -36.9315 359.888 -1.54886 -359.118
lowerback 5.49475 -0.181201 2.92381
upperback -5.5495 0.140488 1.26761
thorax -8.94953 -0.0728076 -0.315854
lowerneck -4.39293 9.91005 6.13519
upperneck 14.0861 13.5505 -4.32531
head 5.69261 6.686 -1.41314
rclavicle 7.95139e-015 7.95139e-015
rhumerus -37.0503 5.05763 -87.3319
rradius 31.64
rwrist 21.2971
rhand -3.67419 -53.1313
rfingers 7.12502
rthumb 22.0668 278.108
lclavicle 7.95139e-015 7.95139e-015
lhumerus -42.2034 1.79136 85.7135
lradius 45.0584
lwrist -3.08925
lhand -12.0495 -39.2518
lfingers 7.12502
lthumb 14.0093 -9.74383
rfemur -2.03593 21.3718 31.0708
rtibia 24.8092
rfoot -24.4271 -29.5344
rtoes 14.1709
lfemur -11.6718 -11.2723 -19.3105
ltibia 31.852
lfoot -22.5316 16.5237
ltoes -44.109
1911
root 9.2072 15.2778 -36.9308 359.829 -1.49362 -359.085
lowerback 5.58008 -0.23928 2.92222
upperback -5.57211 0.0700199 1.31122
thorax -9.02697 -0.106354 -0.258859
lowerneck -4.34004 9.96339 6.10518
upperneck 14.1165 13.626 -4.29193
head 5.69294 6.72445 -1.3945
rclavicle 1.39149e-015 7.15625e-015
rhumerus -37.0176 5.19858 -87.3041
rradius 31.5954
rwrist 21.3527
rhand -3.78213 -52.888
rfingers 7.12502
rthumb 21.9632 278.339
lclavicle 1.39149e-015 7.15625e-015
lhumerus -42.2014 1.93426 85.6592
lradius 44.9346
lwrist -3.31169
lhand -12.2443 -39.063
lfingers 7.12502
lthumb 13.8216 -9.54218
rfemur -1.97709 21.4882 31.1017
rtibia 24.8563
rfoot -24.416 -29.718
rtoes 14.4697
lfemur -11.5976 -11.2962 -19.3522
ltibia 31.8145
lfoot -22.4532 16.5766
ltoes -44.2235
1912
root 9.20461 15.2759 -36.9321 359.76 -1.44621 -359.06
lowerback 5.602 -0.274604 2.90352
upperback -5.55352 0.0251249 1.3607
thorax -9.02079 -0.124909 -0.190035
lowerneck -4.17469 9.99451 6.08274
upperneck 13.9509 13.6813 -4.36247
head 5.61953 6.75074 -1.4213
rclavicle 9.93923e-016 2.22639e-014
rhumerus -36.9925 5.28473 -87.2794
rradius 31.664
rwrist 21.3076
rhand -3.59793 -53.3058
rfingers 7.12502
rthumb 22.14 277.942
lclavicle 9.93923e-016 2.22639e-014
lhumerus -42.1439 2.04707 85.6358
lradius 44.8412
lwrist -3.49891
lhand -12.3473 -38.9327
lfingers 7.12502
lthumb 13.7223 -9.40516
rfemur -1.90828 21.5905 31.1474
rtibia 24.8938
rfoot -24.3815 -29.9352
rtoes 14.2399
lfemur -11.509 -11.3148 -19.3858
ltibia 31.7868
lfoot -22.4136 16.6134
ltoes -44.4027
1913
root 9.20188 15.2764 -36.9332 359.745 -1.44455 -359.017
lowerback 5.66266 -0.285583 2.99127
upperback -5.61459 0.0191049 1.30847
thorax -9.1244 -0.137093 -0.292748
lowerneck -4.00614 9.9951 6.17987
upperneck 13.8218 13.6857 -4.43029
head 5.56263 6.75805 -1.46804
rclavicle -4.77083e-015 -6.36111e-015
rhumerus -37.0792 5.32455 -87.4516
rradius 31.8233
rwrist 21.0176
rhand -3.52323 -54.3136
rfingers 7.12502
rthumb 22.2117 276.943
lclavicle -4.77083e-015 -6.36111e-015
lhumerus -42.1685 1.99118 85.5309
lradius 44.7394
lwrist -3.60203
lhand -12.3874 -39.0981
lfingers 7.12502
lthumb 13.6836 -9.56792
rfemur -1.88261 21.6128 31.1312
rtibia 24.9057
rfoot -24.3737 -29.9909
rtoes 14.2783
lfemur -11.4852 -11.2531 -19.4158
ltibia 31.7862
lfoot -22.55 16.3523
ltoes -44.2048
